<svg xmlns="http://www.w3.org/2000/svg" viewBox="0 0 320 240" role="img" aria-label="Ram and Sita cartoon">
  <rect width="320" height="240" rx="30" fill="#e3f7d4"/>
  <circle cx="120" cy="110" r="44" fill="#86c5ff"/>
  <circle cx="200" cy="110" r="44" fill="#ffc6d9"/>
  <ellipse cx="160" cy="186" rx="86" ry="34" fill="#ffd166"/>
  <circle cx="106" cy="108" r="5" fill="#243b6b"/>
  <circle cx="134" cy="108" r="5" fill="#243b6b"/>
  <path d="M108 128c7 8 17 8 24 0" stroke="#243b6b" stroke-width="4" fill="none" stroke-linecap="round"/>
  <circle cx="186" cy="108" r="5" fill="#6b2f4a"/>
  <circle cx="214" cy="108" r="5" fill="#6b2f4a"/>
  <path d="M188 128c7 8 17 8 24 0" stroke="#6b2f4a" stroke-width="4" fill="none" stroke-linecap="round"/>
  <path d="M84 82l18-16 14 16" fill="#35a853"/>
  <path d="M168 70c10-18 24-18 34 0" stroke="#ff7f50" stroke-width="7" fill="none" stroke-linecap="round"/>
  <rect x="244" y="66" width="6" height="96" rx="3" fill="#8d5524"/>
  <path d="M250 74l22 14-22 14" fill="#8ecae6"/>
</svg>
